<svg width="30" height="30" viewBox="0 0 30 30" fill="none" xmlns="http://www.w3.org/2000/svg">
<path opacity="0.2" d="M30 15C30 19.2593 28.5648 22.8241 25.6944 25.6944C22.9167 28.5648 19.3519 30 15 30C10.6481 30 7.03704 28.5648 4.16667 25.6944C1.38889 22.8241 0 19.2593 0 15C0 10.6481 1.38889 7.08333 4.16667 4.30555C7.03704 1.43518 10.6481 0 15 0C19.3519 0 22.9167 1.43518 25.6944 4.30555C28.5648 7.08333 30 10.6481 30 15Z" fill="url(#paint0_linear_24_282)"/>
<path d="M21.2195 15C21.2195 16.7661 20.6244 18.2442 19.4343 19.4343C18.2825 20.6245 16.8044 21.2195 15 21.2195C13.1956 21.2195 11.6983 20.6245 10.5081 19.4343C9.35637 18.2442 8.78049 16.7661 8.78049 15C8.78049 13.1956 9.35637 11.7175 10.5081 10.5657C11.6983 9.37559 13.1956 8.78052 15 8.78052C16.8044 8.78052 18.2825 9.37559 19.4343 10.5657C20.6244 11.7175 21.2195 13.1956 21.2195 15Z" fill="url(#paint1_linear_24_282)"/>
<defs>
<linearGradient id="paint0_linear_24_282" x1="0" y1="0" x2="30.1204" y2="1.7262" gradientUnits="userSpaceOnUse">
<stop stop-color="#FBF0A2"/>
<stop offset="1" stop-color="#D29B50"/>
</linearGradient>
<linearGradient id="paint1_linear_24_282" x1="8.78049" y1="8.78052" x2="21.2694" y2="9.49626" gradientUnits="userSpaceOnUse">
<stop stop-color="#FBF0A2"/>
<stop offset="1" stop-color="#D29B50"/>
</linearGradient>
</defs>
</svg>
