<svg width="81" height="71" viewBox="0 0 81 71" fill="none" xmlns="http://www.w3.org/2000/svg">
<path d="M30.6774 70.48H31.1774V69.98V40.3026V39.8026H30.6774H15.4046C15.4231 36.9627 15.5991 34.1227 15.9328 31.2825C16.4609 28.1202 17.338 25.3212 18.5585 22.8801C19.7758 20.4455 21.3312 18.551 23.218 17.1789L23.2295 17.1705L23.2405 17.1615C25.0952 15.644 27.4718 14.8682 30.4101 14.8682H30.9101V14.3682V1V0.5H30.4101C25.3461 0.5 20.891 1.58577 17.0612 3.77426C13.2534 5.95013 10.0792 8.85258 7.54186 12.4773L7.53693 12.4843L7.53225 12.4915C5.18123 16.1085 3.37918 20.3486 2.12019 25.2047L2.12001 25.2046L2.11699 25.2177C1.03805 29.8931 0.5 34.922 0.5 40.3026V69.98V70.48H1H30.6774ZM79.6051 70.48H80.1051V69.98V40.3026V39.8026H79.6051H64.3323C64.3507 36.9627 64.5268 34.1228 64.8605 31.2826C65.3886 28.1203 66.2657 25.3212 67.4862 22.8801C68.7035 20.4455 70.2589 18.551 72.1456 17.1789L72.1572 17.1705L72.1682 17.1615C74.0228 15.644 76.3995 14.8682 79.3378 14.8682H79.8378V14.3682V1V0.5H79.3378C74.2738 0.5 69.8187 1.58577 65.9888 3.77426C62.181 5.95013 59.0068 8.85258 56.4695 12.4773L56.4646 12.4843L56.4599 12.4915C54.1089 16.1085 52.3069 20.3486 51.0479 25.2047L51.0477 25.2046L51.0447 25.2177C49.9657 29.8931 49.4277 34.922 49.4277 40.3026V69.98V70.48H49.9277H79.6051Z" stroke="white"/>
</svg>
