<svg width="81" height="71" viewBox="0 0 81 71" fill="none" xmlns="http://www.w3.org/2000/svg">
<path d="M49.9277 0.500463L49.4277 0.500463L49.4277 1.00046L49.4277 30.6779L49.4277 31.1779L49.9277 31.1779L65.2005 31.1779C65.182 34.0178 65.006 36.8577 64.6723 39.6979C64.1442 42.8602 63.2671 45.6592 62.0466 48.1003C60.8293 50.535 59.2739 52.4294 57.3871 53.8016L57.3756 53.81L57.3646 53.819C55.5099 55.3364 53.1333 56.1122 50.195 56.1122L49.695 56.1122L49.695 56.6122L49.695 69.9805L49.695 70.4805L50.195 70.4805C55.259 70.4805 59.7141 69.3947 63.5439 67.2062C67.3517 65.0303 70.5259 62.1279 73.0632 58.5032L73.0682 58.4961L73.0729 58.4889C75.4239 54.872 77.2259 50.6319 78.4849 45.7758L78.4851 45.7758L78.4881 45.7627C79.5671 41.0873 80.1051 36.0584 80.1051 30.6779L80.1051 1.00047L80.1051 0.500465L79.6051 0.500465L49.9277 0.500463ZM0.999991 0.500459L0.499991 0.500458L0.499991 1.00046L0.499988 30.6779L0.499988 31.1779L0.999988 31.1779L16.2728 31.1779C16.2544 34.0177 16.0783 36.8577 15.7446 39.6979C15.2165 42.8602 14.3394 45.6592 13.1189 48.1003C11.9016 50.5349 10.3462 52.4294 8.45947 53.8016L8.44795 53.81L8.43693 53.819C6.58227 55.3364 4.20562 56.1122 1.26735 56.1122L0.76735 56.1122L0.76735 56.6122L0.767349 69.9805L0.767349 70.4805L1.26735 70.4805C6.33129 70.4805 10.7864 69.3947 14.6163 67.2062C18.4241 65.0303 21.5983 62.1279 24.1356 58.5032L24.1405 58.4961L24.1452 58.4889C26.4962 54.872 28.2982 50.6319 29.5572 45.7758L29.5574 45.7758L29.5604 45.7627C30.6394 41.0873 31.1774 36.0584 31.1774 30.6779L31.1774 1.00046L31.1774 0.500461L30.6774 0.500461L0.999991 0.500459Z" stroke="white"/>
</svg>
